<?xml version="1.0" encoding="UTF-8" standalone="no"?>
<!-- Created with Inkscape (http://www.inkscape.org/) -->

<svg
   xmlns:dc="http://purl.org/dc/elements/1.1/"
   xmlns:cc="http://creativecommons.org/ns#"
   xmlns:rdf="http://www.w3.org/1999/02/22-rdf-syntax-ns#"
   xmlns:svg="http://www.w3.org/2000/svg"
   xmlns="http://www.w3.org/2000/svg"
   xmlns:xlink="http://www.w3.org/1999/xlink"
   xmlns:sodipodi="http://sodipodi.sourceforge.net/DTD/sodipodi-0.dtd"
   xmlns:inkscape="http://www.inkscape.org/namespaces/inkscape"
   width="744.09448819"
   height="1052.3622047"
   id="svg2"
   version="1.1"
   inkscape:version="0.48.4 r9939"
   sodipodi:docname="country field.svg"
   inkscape:export-filename="E:\SHAHZAIB ALI\android\background\country field.png"
   inkscape:export-xdpi="90"
   inkscape:export-ydpi="90">
  <defs
     id="defs4">
    <linearGradient
       id="linearGradient3775">
      <stop
         style="stop-color:#3caaff;stop-opacity:1;"
         offset="0"
         id="stop3777" />
      <stop
         style="stop-color:#ffffff;stop-opacity:1;"
         offset="1"
         id="stop3779" />
    </linearGradient>
    <linearGradient
       id="linearGradient3767">
      <stop
         style="stop-color:#00ccff;stop-opacity:1;"
         offset="0"
         id="stop3769" />
      <stop
         style="stop-color:#a3edff;stop-opacity:1;"
         offset="1"
         id="stop3771" />
    </linearGradient>
    <linearGradient
       inkscape:collect="always"
       xlink:href="#linearGradient3775"
       id="linearGradient3781"
       x1="290"
       y1="266.64789"
       x2="292.85715"
       y2="639.50507"
       gradientUnits="userSpaceOnUse" />
  </defs>
  <sodipodi:namedview
     id="base"
     pagecolor="#ffffff"
     bordercolor="#666666"
     borderopacity="1.0"
     inkscape:pageopacity="0.0"
     inkscape:pageshadow="2"
     inkscape:zoom="0.34872825"
     inkscape:cx="301.96768"
     inkscape:cy="606.5791"
     inkscape:document-units="px"
     inkscape:current-layer="layer1"
     showgrid="false"
     inkscape:window-width="1024"
     inkscape:window-height="712"
     inkscape:window-x="-4"
     inkscape:window-y="-4"
     inkscape:window-maximized="1" />
  <metadata
     id="metadata7">
    <rdf:RDF>
      <cc:Work
         rdf:about="">
        <dc:format>image/svg+xml</dc:format>
        <dc:type
           rdf:resource="http://purl.org/dc/dcmitype/StillImage" />
        <dc:title></dc:title>
      </cc:Work>
    </rdf:RDF>
  </metadata>
  <g
     inkscape:label="Layer 1"
     inkscape:groupmode="layer"
     id="layer1">
    <rect
       style="fill:url(#linearGradient3781);fill-opacity:1;stroke:none"
       id="rect3765"
       width="955.71429"
       height="298.57141"
       x="-215.71428"
       y="275.21933" />
    <path
       style="fill:#aade87;fill-opacity:1;stroke:none"
       d="M 739.4375 504.59375 L 739.4375 513.21875 C 739.6543 511.98977 740 510.78811 740 509.5 C 740 507.82101 739.77867 506.1831 739.4375 504.59375 z "
       id="path4145" />
    <path
       style="fill:#aade87;fill-opacity:1;stroke:none"
       d="M 415 476.65625 C 397.26743 476.65625 382.03852 486.54922 374.21875 500.9375 C 370.09984 499.14698 365.56205 498.0625 360.71875 498.0625 C 344.86387 498.0625 331.75964 508.81222 329.125 522.90625 C 326.60324 522.57483 324.05538 522.375 321.4375 522.375 C 308.13494 522.375 296.08002 526.96329 286.5 534.34375 C 289.5569 529.95349 291.4375 524.92368 291.4375 519.5 C 291.4375 502.93145 275.11894 489.5 255 489.5 C 238.54832 489.5 224.80364 498.54143 220.28125 510.875 C 210.8264 504.72265 199.20357 500.9375 186.4375 500.9375 C 166.86987 500.9375 149.62215 509.51076 139.5 522.53125 C 138.94492 522.49443 138.40815 522.375 137.84375 522.375 C 129.14936 522.375 121.51038 526.79674 117.03125 533.53125 C 113.90513 531.48121 110.5989 529.65011 107.125 528.0625 C 108.93446 524.78637 110 521.19097 110 517.375 C 110 502.77891 95.30275 490.9375 77.15625 490.9375 C 59.009751 490.9375 44.28125 502.77891 44.28125 517.375 C 44.28125 520.41713 45.074038 523.28007 46.25 526 C 35.759759 529.95147 26.546325 536.07913 19.21875 543.71875 C 14.711703 532.88717 3.6834406 525.21875 -9.28125 525.21875 C -18.502273 525.21875 -26.682567 529.17783 -32.3125 535.3125 C -38.651218 531.15235 -45.7504 528.09987 -53.375 526.3125 C -50.410288 523.61607 -48.5625 519.97467 -48.5625 515.9375 C -48.5625 507.65323 -56.251011 500.9375 -65.71875 500.9375 C -75.052617 500.9375 -82.599683 507.47136 -82.8125 515.59375 C -90.081764 512.67753 -98.615661 510.9375 -107.84375 510.9375 C -132.27042 510.9375 -152.14091 522.79406 -154.53125 537.9375 C -158.36461 537.17501 -162.33042 536.65625 -166.4375 536.65625 C -172.48742 536.65625 -178.19103 537.70324 -183.59375 539.3125 C -183.16869 538.00537 -182.84375 536.64516 -182.84375 535.21875 C -182.84375 526.93448 -190.53227 520.21875 -200 520.21875 C -207.28499 520.21875 -213.45503 524.20514 -215.9375 529.8125 L -215.9375 719.5 L 739.4375 719.5 L 739.4375 522.59375 C 738.42068 522.32453 737.47495 521.90813 736.4375 521.6875 C 737.9984 519.10148 738.90735 516.22404 739.4375 513.21875 L 739.4375 504.59375 C 736.89292 492.73969 725.35151 483.78125 711.4375 483.78125 C 695.65794 483.78125 682.84375 495.29839 682.84375 509.5 C 682.84375 509.89539 682.94913 510.26522 682.96875 510.65625 C 678.49287 509.04829 673.64957 508.0625 668.5625 508.0625 C 646.47111 508.0625 628.5625 524.70532 628.5625 545.21875 C 628.5625 546.19116 628.79598 547.1089 628.875 548.0625 C 625.56683 547.23996 622.15008 546.65625 618.5625 546.65625 C 614.96111 546.65625 611.53835 547.23382 608.21875 548.0625 L 601.90625 548.0625 C 597.17315 532.45038 581.88899 520.9375 563.5625 520.9375 C 557.33914 520.9375 551.53385 522.36426 546.28125 524.71875 C 543.87617 521.63893 541.25977 518.87583 538.375 516.5 C 535.12669 502.09788 504.08354 482.375 482.84375 482.375 C 472.28115 482.375 459.99928 486.38823 449.75 492.3125 C 441.24117 482.7827 428.89995 476.65625 415 476.65625 z M 277.25 543.09375 C 276.68093 543.79711 276.09446 544.48809 275.5625 545.21875 C 275.37459 545.00042 275.22424 544.74443 275.03125 544.53125 C 275.8221 544.10133 276.50388 543.57176 277.25 543.09375 z "
       id="rect3981" />
    <path
       style="fill:#8dd35f;fill-opacity:1;stroke:none"
       d="M 739.4375 621.9375 C 738.38152 621.77331 737.30017 621.65625 736.1875 621.65625 C 726.34428 621.65625 718.34375 628.37198 718.34375 636.65625 C 718.34375 638.07749 718.65492 639.41584 719.09375 640.71875 C 713.48513 639.11488 707.56007 638.0625 701.28125 638.0625 C 697.09086 638.0625 693.0423 638.54612 689.125 639.28125 C 686.61507 624.15357 665.75207 612.375 640.375 612.375 C 630.78303 612.375 621.90027 614.11621 614.34375 617.03125 C 614.12249 608.90886 606.26655 602.375 596.5625 602.375 C 586.71927 602.375 578.75 609.09073 578.75 617.375 C 578.75 621.41433 580.6648 625.05317 583.75 627.75 C 575.8222 629.53614 568.43483 632.59067 561.84375 636.75 C 555.99025 630.6067 547.50075 626.65625 537.90625 626.65625 C 524.43904 626.65625 512.94357 634.30829 508.25 645.125 C 500.63828 637.49926 491.07766 631.38496 480.1875 627.4375 C 481.41423 624.71349 482.1875 621.82875 482.1875 618.78125 C 482.1875 604.18516 466.89745 592.375 448.03125 592.375 C 429.16506 592.375 413.875 604.18516 413.875 618.78125 C 413.875 622.59428 414.96526 626.1946 416.84375 629.46875 C 413.23325 631.05666 409.81151 632.91866 406.5625 634.96875 C 401.9056 628.23498 393.94487 623.78125 384.90625 623.78125 C 384.31487 623.78125 383.76903 623.93136 383.1875 623.96875 C 372.66361 610.94981 354.74849 602.375 334.40625 602.375 C 321.13169 602.375 309.0494 606.15831 299.21875 612.3125 C 294.5226 599.97175 280.23561 590.9375 263.125 590.9375 C 242.20814 590.9375 225.25 604.36895 225.25 620.9375 C 225.25 626.16317 227.09674 631.00268 230.0625 635.28125 C 220.17396 628.10645 207.6776 623.78125 194.0625 623.78125 C 191.33575 623.78125 188.68893 624.01112 186.0625 624.34375 C 183.32337 610.24972 169.70243 599.5 153.21875 599.5 C 148.18621 599.5 143.4679 600.58638 139.1875 602.375 C 131.06038 587.97817 115.22377 578.0625 96.78125 578.0625 C 82.324712 578.0625 69.502757 584.21412 60.65625 593.75 C 50.003832 587.83094 37.225666 583.78125 26.25 583.78125 C 4.1835448 583.78125 -28.084055 603.50678 -31.5 617.90625 C -34.491024 620.27703 -37.255174 623.05379 -39.75 626.125 C -45.199288 623.78294 -51.235515 622.375 -57.6875 622.375 C -76.741161 622.375 -92.61074 633.88745 -97.53125 649.5 L -104.09375 649.5 C -107.54733 648.67012 -111.12796 648.0625 -114.875 648.0625 C -118.59449 648.0625 -122.13172 648.65062 -125.5625 649.46875 C -125.4815 648.52189 -125.25 647.62164 -125.25 646.65625 C -125.25 626.14282 -143.87621 609.5 -166.84375 609.5 C -172.13753 609.5 -177.15551 610.48292 -181.8125 612.09375 C -181.7921 611.70301 -181.6875 611.3326 -181.6875 610.9375 C -181.6875 596.73589 -195.00087 585.21875 -211.40625 585.21875 C -213.38141 585.21875 -215.28893 585.40039 -217.15625 585.71875 L -217.15625 820.9375 L 739.4375 820.9375 L 739.4375 621.9375 z M 239.96875 644.5 C 240.75455 644.98561 241.47884 645.53257 242.3125 645.96875 C 242.10971 646.18411 241.94739 646.43563 241.75 646.65625 C 241.1886 645.91432 240.56992 645.21379 239.96875 644.5 z "
       id="path4142" />
    <path
       style="fill:#784421;fill-opacity:1;stroke:none"
       d="m -216.17264,739.2149 c 9.68077,0.68012 19.49142,1.30593 29.41942,1.88044 7.63395,0.44176 15.33727,6.91411 23.10429,7.29659 5.07307,0.24983 10.17332,-5.57362 15.29914,-5.34811 186.15865,8.18993 406.05984,0.5978 583.65359,-4.37701 6.4598,-0.18095 14.88393,2.67201 21.22812,2.49887 8.51478,-0.23239 14.90184,-3.48739 23.19293,-3.70197 32.25808,-0.83485 62.96593,-5.38434 90.97289,-1.92553 22.81249,2.81731 42.32341,1.77638 59.6477,-0.39384 46.72987,-5.85388 84.29848,1.69174 107.90278,5.49913 l 0,98.99495 -954.42086,-1.42857 z"
       id="rect4151"
       inkscape:connector-curvature="0"
       sodipodi:nodetypes="csssssssscccc" />
    <path
       style="fill:#784421;fill-opacity:1;stroke:none"
       d="m -106.42858,745.21932 c 19.523815,-6.17202 39.047626,-5.24064 58.571437,0 l 0,17.14286 -58.571437,0 z"
       id="rect4172"
       inkscape:connector-curvature="0"
       sodipodi:nodetypes="ccccc" />
    <path
       style="fill:#784421;fill-opacity:1;stroke:none"
       d="m 44.999997,747.36275 c 19.523819,-10.9317 136.190483,-15.02669 155.714293,-1.42857 l 161.42857,5 c -54.06931,-30.60602 -178.10355,0.007 -272.857149,5 z"
       id="rect4172-1"
       inkscape:connector-curvature="0"
       sodipodi:nodetypes="ccccc" />
    <path
       style="fill:#804a23;fill-opacity:1;stroke:none"
       d="m -216.59108,752.72256 c 9.68077,0.68012 19.49142,1.30593 29.41942,1.88044 7.63395,0.44176 15.33727,6.91411 23.10429,7.29659 5.07307,0.24983 10.17332,-5.57362 15.29914,-5.34811 186.158653,8.18993 406.05985,0.5978 583.6536,-4.37701 6.4598,-0.18095 14.88393,2.67201 21.22811,2.49887 8.51478,-0.23239 14.90184,-3.48739 23.19293,-3.70197 32.25808,-0.83485 70.10879,16.04423 98.11575,19.50304 22.81249,2.81731 35.18055,3.20495 52.50484,1.03473 46.72987,-5.85388 84.29848,-21.1654 107.90278,-17.35801 l 0,98.99495 -954.42086,-1.42857 z"
       id="rect4151-7"
       inkscape:connector-curvature="0"
       sodipodi:nodetypes="csssssssscccc" />
    <path
       style="fill:#804a23;fill-opacity:1;stroke:none"
       d="m 6.1305862,757.81911 c 19.5238148,-6.17202 39.0476278,-5.24064 58.5714378,0 l 0,17.14286 -58.5714378,0 z"
       id="rect4172-11"
       inkscape:connector-curvature="0"
       sodipodi:nodetypes="ccccc" />
    <path
       style="fill:#804a23;fill-opacity:1;stroke:none"
       d="m 157.55916,759.96254 c 19.52382,-10.9317 136.19048,-15.02669 155.71429,-1.42857 l 161.42857,5 c -54.06931,-30.60602 -178.10355,0.007 -272.85715,5 z"
       id="rect4172-1-5"
       inkscape:connector-curvature="0"
       sodipodi:nodetypes="ccccc" />
    <path
       style="fill:#804a23;fill-opacity:1;stroke:none"
       d="m 522.2489,762.44836 c 47.28887,-0.99208 107.8466,-3.80768 130.00187,-9.05386 14.44779,-3.42111 10.69435,9.30972 13.94487,17.13508 l -32.82996,28.28427 -111.11678,0 z"
       id="rect4268"
       inkscape:connector-curvature="0"
       sodipodi:nodetypes="cscccc" />
    <path
       style="fill:#7f4e2d;fill-opacity:1;stroke:none"
       d="m -217.66831,771.88628 c 9.68077,0.68012 19.49142,1.30593 29.41942,1.88044 7.63395,0.44176 15.33727,6.91411 23.10429,7.29659 5.07307,0.24983 10.17332,-5.57362 15.29914,-5.34811 186.158649,8.18993 406.05985,0.5978 583.6536,-4.37701 6.4598,-0.18095 14.88393,2.67201 21.22811,2.49887 8.51478,-0.23239 14.90184,-3.48739 23.19293,-3.70197 32.25808,-0.83485 70.10879,16.04423 98.11575,19.50304 22.81249,2.81731 35.18055,3.20495 52.50484,1.03473 46.72987,-5.85388 84.29848,-21.1654 107.90278,-17.35801 l 0,98.99495 -954.42086,-1.42857 z"
       id="rect4151-7-6"
       inkscape:connector-curvature="0"
       sodipodi:nodetypes="csssssssscccc" />
    <path
       transform="translate(-37.511947,13.179873)"
       style="opacity:0.52466371000000001;fill:#784421;fill-opacity:1;stroke:none"
       d="m 112.53584,812.58984 c 1.9816,12.44153 -49.217833,1.52076 -123.688041,1.52076 -74.470209,0 -143.928339,10.90735 -145.992439,-1.52076 -1.31575,-7.92223 16.49895,3.20584 75.461414,-7.68295 16.436456,-3.03538 36.070416,-7.78164 59.378825,-15.12837 7.078474,-2.23111 36.988682,15.32328 69.959265,15.54532 73.056226,0.49201 176.993656,-12.7642 193.065726,-10.01262 33.84638,5.79459 -129.2459,10.61612 -128.18475,17.27862 z"
       id="path4291"
       inkscape:connector-curvature="0"
       sodipodi:nodetypes="ssssssss" />
    <path
       style="opacity:0.52466371;fill:#784421;fill-opacity:1;stroke:none"
       d="m 542.55887,783.31198 c 1.9816,12.44153 -49.21783,1.52076 -123.68804,1.52076 -74.47021,0 -143.92834,10.90735 -145.99244,-1.52076 -1.31575,-7.92223 16.49895,3.20584 75.46141,-7.68295 16.43646,-3.03538 36.07042,-7.78164 59.37883,-15.12837 7.07847,-2.23111 36.98868,15.32328 69.95926,15.54532 73.05623,0.49201 176.99366,-12.7642 193.06573,-10.01262 33.84638,5.79459 -129.2459,10.61612 -128.18475,17.27862 z"
       id="path4291-1"
       inkscape:connector-curvature="0"
       sodipodi:nodetypes="ssssssss" />
    <path
       style="opacity:0.52466371;fill:#784421;fill-opacity:1;stroke:none"
       d="m 565.72071,839.45652 c -11.67254,3.80972 164.73079,-58.61113 134.84025,-20.2767 -23.21844,29.77752 -264.72673,58.15402 -289.44645,32.89142 -17.43476,-17.81762 -78.57617,-5.66727 -78.57617,-12.61472 0,-9.14479 -97.07167,-27.671 -67.15389,-37.07393 22.52495,-7.07943 150.77442,19.44145 183.74508,6.65884 14.56308,-5.64605 26.58062,19.86824 46.11499,24.07168 37.4961,8.06847 80.91479,2.93643 70.47619,6.34341 z"
       id="path4319"
       inkscape:connector-curvature="0"
       sodipodi:nodetypes="ssssssss" />
    <path
       sodipodi:type="arc"
       style="opacity:0.52466371;fill:#784421;fill-opacity:1;stroke:none"
       id="path4322"
       sodipodi:cx="204.79495"
       sodipodi:cy="938.8125"
       sodipodi:rx="111.522"
       sodipodi:ry="6.0830183"
       d="m 316.31696,938.8125 a 111.522,6.0830183 0 1 1 -223.044011,0 111.522,6.0830183 0 1 1 223.044011,0 z"
       transform="translate(-16.221382,-91.245276)" />
    <path
       id="path4326-2"
       transform="matrix(0.96290621,0,0,0.57652729,149.83272,222.79768)"
       style="fill:#ffffff;fill-opacity:0.50802141;stroke:none"
       d="m -108.96737,209.29884 c 0,24.54752 -21.50451,44.44722 -48.03167,44.44722 -26.52716,0 -48.03167,-19.8997 -48.03167,-44.44722 0,-24.54752 21.50451,-44.44721 48.03167,-44.44721 26.52716,0 48.03167,19.89969 48.03167,44.44721 z m -196.07448,42.22485 c 0,6.13688 -4.71332,11.1118 -10.52749,11.1118 -5.81417,0 -10.52749,-4.97492 -10.52749,-11.1118 0,-6.13688 4.71332,-11.11181 10.52749,-11.11181 5.81417,0 10.52749,4.97493 10.52749,11.11181 z m 43.42589,-8.14865 c 0,11.45551 -11.48871,20.74203 -25.66075,20.74203 -14.17205,0 -25.66076,-9.28652 -25.66076,-20.74203 0,-11.45551 11.48871,-20.74204 25.66076,-20.74204 14.17204,0 25.66075,9.28653 25.66075,20.74204 z m 175.677478,10.37101 c 0,15.54675 -47.604098,10.37101 -111.196608,10.37101 -63.5925,0 -123.04003,6.65732 -123.04003,-8.88944 0,-15.54675 55.49972,-29.63148 119.09222,-29.63148 63.59251,0 115.144418,12.60315 115.144418,28.14991 z m -68.428668,-78.52343 c 0,24.54752 -21.50451,44.44722 -48.03167,44.44722 -26.52716,0 -48.03167,-19.8997 -48.03167,-44.44722 0,-24.54752 21.50451,-44.44721 48.03167,-44.44721 26.52716,0 48.03167,19.89969 48.03167,44.44721 z m -39.47809,38.52096 c 0,25.36577 -19.73702,45.92878 -44.08387,45.92878 -24.34684,0 -44.08386,-20.56301 -44.08386,-45.92878 0,-25.36577 19.73702,-45.9288 44.08386,-45.9288 24.34685,0 44.08387,20.56303 44.08387,45.9288 z" />
    <path
       inkscape:connector-curvature="0"
       id="path4326-2-2"
       style="fill:#ffffff;fill-opacity:0.5080214;stroke:none"
       d="m 280.24622,337.79721 c 0,9.35065 -12.89958,16.93084 -28.81201,16.93084 -15.91244,0 -28.81201,-7.58019 -28.81201,-16.93084 0,-9.35063 12.89957,-16.93083 28.81201,-16.93083 15.91243,0 28.81201,7.5802 28.81201,16.93083 z M 162.63008,353.8815 c 0,2.33767 -2.82731,4.23271 -6.31496,4.23271 -3.48766,0 -6.31496,-1.89504 -6.31496,-4.23271 0,-2.33766 2.8273,-4.2327 6.31496,-4.2327 3.48765,0 6.31496,1.89504 6.31496,4.2327 z m 26.04921,-3.10398 c 0,4.36363 -6.89155,7.90106 -15.39271,7.90106 -8.50117,0 -15.39272,-3.53743 -15.39272,-7.90106 0,-4.36363 6.89155,-7.90106 15.39272,-7.90106 8.50116,0 15.39271,3.53743 15.39271,7.90106 z m 105.3809,3.95053 c 0,5.92207 -28.55553,3.95052 -66.70177,3.95052 -38.14624,0 -73.8061,2.53591 -73.8061,-3.38616 0,-5.92207 33.29175,-11.28723 71.43799,-11.28723 38.14624,0 69.06988,4.80079 69.06988,10.72287 z M 253.01296,324.8169 c 0,9.35065 -12.89958,16.93084 -28.81201,16.93084 -15.91243,0 -28.81201,-7.58019 -28.81201,-16.93084 0,-9.35064 12.89958,-16.93083 28.81201,-16.93083 15.91243,0 28.81201,7.58019 28.81201,16.93083 z m -23.68111,14.6734 c 0,9.66233 -11.83933,17.4952 -26.4439,17.4952 -14.60456,0 -26.4439,-7.83287 -26.4439,-17.4952 0,-9.66232 11.83934,-17.49519 26.4439,-17.49519 14.60457,0 26.4439,7.83287 26.4439,17.49519 z" />
    <path
       id="path4533"
       style="fill:#ffffff;fill-opacity:0.59358287;stroke:none"
       d="m 654.93829,397.42387 c 0,14.55808 -54.4692,26.35974 -121.66037,26.35974 -67.19117,0 -121.66037,-11.80166 -121.66037,-26.35974 0,-14.55809 54.4692,-26.35975 121.66037,-26.35975 67.19117,0 121.66037,11.80166 121.66037,26.35975 z m -38.52576,-28.38743 c 0,12.31839 -13.61731,22.30441 -30.4151,22.30441 -16.79779,0 -30.41509,-9.98602 -30.41509,-22.30441 0,-12.31838 13.6173,-22.3044 30.41509,-22.3044 16.79779,0 30.4151,9.98602 30.4151,22.3044 z m -121.66037,6.08302 c 0,12.31839 -13.61731,22.30441 -30.4151,22.30441 -16.79779,0 -30.41509,-9.98602 -30.41509,-22.30441 0,-12.31838 13.6173,-22.3044 30.41509,-22.3044 16.79779,0 30.4151,9.98602 30.4151,22.3044 z m -54.74716,4.05535 c 0,12.31839 -13.61731,22.30441 -30.4151,22.30441 -16.79779,0 -30.41509,-9.98602 -30.41509,-22.30441 0,-12.31838 13.6173,-22.3044 30.41509,-22.3044 16.79779,0 30.4151,9.98602 30.4151,22.3044 z m 13.17986,19.26289 c 0,12.31839 -13.61731,22.30441 -30.4151,22.30441 -16.79779,0 -30.41509,-9.98602 -30.41509,-22.30441 0,-12.31838 13.6173,-22.3044 30.41509,-22.3044 16.79779,0 30.4151,9.98602 30.4151,22.3044 z m 124.70189,-64.88553 c 0,29.6761 -30.41198,53.73333 -67.92704,53.73333 -37.51507,0 -67.92704,-24.05723 -67.92704,-53.73333 0,-29.6761 30.41197,-53.73333 67.92704,-53.73333 37.51506,0 67.92704,24.05723 67.92704,53.73333 z"
       inkscape:connector-curvature="0" />
  </g>
</svg>
